<svg width="150" viewBox="0 0 268 253" fill="none" xmlns="http://www.w3.org/2000/svg">
<ellipse cx="126" cy="35.6172" rx="28" ry="27" fill="#C5B8D1"/>
<path d="M11.4707 135C11.3066 134.535 11.2018 133.847 11.1562 132.936C10.582 133.683 9.84831 134.262 8.95508 134.672C8.07096 135.073 7.13216 135.273 6.13867 135.273C4.7168 135.273 3.5638 134.877 2.67969 134.084C1.80469 133.291 1.36719 132.288 1.36719 131.076C1.36719 129.636 1.96419 128.497 3.1582 127.658C4.36133 126.82 6.03385 126.4 8.17578 126.4H11.1426V124.719C11.1426 123.661 10.8145 122.832 10.1582 122.23C9.51107 121.62 8.56315 121.314 7.31445 121.314C6.17513 121.314 5.23177 121.606 4.48438 122.189C3.73698 122.773 3.36328 123.475 3.36328 124.295L1.72266 124.281C1.72266 123.105 2.26953 122.089 3.36328 121.232C4.45703 120.367 5.80143 119.934 7.39648 119.934C9.04622 119.934 10.3451 120.348 11.293 121.178C12.25 121.998 12.7422 123.146 12.7695 124.623V131.623C12.7695 133.054 12.9199 134.125 13.2207 134.836V135H11.4707ZM6.33008 133.824C7.42383 133.824 8.39909 133.56 9.25586 133.031C10.1217 132.503 10.7507 131.796 11.1426 130.912V127.658H8.2168C6.58529 127.676 5.30924 127.977 4.38867 128.561C3.4681 129.135 3.00781 129.928 3.00781 130.939C3.00781 131.769 3.31315 132.457 3.92383 133.004C4.54362 133.551 5.3457 133.824 6.33008 133.824ZM22.0883 127.467C22.0883 125.17 22.5987 123.342 23.6195 121.984C24.6495 120.617 26.044 119.934 27.8031 119.934C29.7992 119.934 31.3214 120.722 32.3695 122.299V114H33.9965V135H32.4652L32.3969 133.031C31.3487 134.526 29.8083 135.273 27.7758 135.273C26.0714 135.273 24.6951 134.59 23.6469 133.223C22.6078 131.846 22.0883 129.992 22.0883 127.658V127.467ZM23.7426 127.754C23.7426 129.641 24.1208 131.131 24.8773 132.225C25.6339 133.309 26.7003 133.852 28.0766 133.852C30.0909 133.852 31.5219 132.963 32.3695 131.186V124.24C31.5219 122.317 30.1 121.355 28.1039 121.355C26.7276 121.355 25.6566 121.898 24.891 122.982C24.1254 124.058 23.7426 125.648 23.7426 127.754ZM50.7391 121.602C50.3927 121.538 50.0236 121.506 49.6316 121.506C48.6108 121.506 47.7449 121.793 47.034 122.367C46.3322 122.932 45.8309 123.757 45.5301 124.842V135H43.9031V120.207H45.5027L45.5301 122.559C46.396 120.809 47.7859 119.934 49.7 119.934C50.1557 119.934 50.5158 119.993 50.7801 120.111L50.7391 121.602ZM60.7687 135H59.1281V120.207H60.7687V135ZM58.841 115.928C58.841 115.618 58.9413 115.358 59.1418 115.148C59.3423 114.93 59.6158 114.82 59.9621 114.82C60.3085 114.82 60.5819 114.93 60.7824 115.148C60.9921 115.358 61.0969 115.618 61.0969 115.928C61.0969 116.238 60.9921 116.497 60.7824 116.707C60.5819 116.917 60.3085 117.021 59.9621 117.021C59.6158 117.021 59.3423 116.917 59.1418 116.707C58.9413 116.497 58.841 116.238 58.841 115.928ZM80.1637 135C79.9996 134.535 79.8948 133.847 79.8492 132.936C79.275 133.683 78.5413 134.262 77.648 134.672C76.7639 135.073 75.8251 135.273 74.8316 135.273C73.4098 135.273 72.2568 134.877 71.3727 134.084C70.4977 133.291 70.0602 132.288 70.0602 131.076C70.0602 129.636 70.6572 128.497 71.8512 127.658C73.0543 126.82 74.7268 126.4 76.8688 126.4H79.8355V124.719C79.8355 123.661 79.5074 122.832 78.8512 122.23C78.204 121.62 77.2561 121.314 76.0074 121.314C74.8681 121.314 73.9247 121.606 73.1773 122.189C72.4299 122.773 72.0563 123.475 72.0563 124.295L70.4156 124.281C70.4156 123.105 70.9625 122.089 72.0563 121.232C73.15 120.367 74.4944 119.934 76.0895 119.934C77.7392 119.934 79.038 120.348 79.9859 121.178C80.943 121.998 81.4352 123.146 81.4625 124.623V131.623C81.4625 133.054 81.6129 134.125 81.9137 134.836V135H80.1637ZM75.023 133.824C76.1168 133.824 77.0921 133.56 77.9488 133.031C78.8147 132.503 79.4436 131.796 79.8355 130.912V127.658H76.9098C75.2783 127.676 74.0022 127.977 73.0816 128.561C72.1611 129.135 71.7008 129.928 71.7008 130.939C71.7008 131.769 72.0061 132.457 72.6168 133.004C73.2366 133.551 74.0387 133.824 75.023 133.824ZM92.9961 120.207L93.0508 122.736C93.6068 121.825 94.2995 121.132 95.1289 120.658C95.9583 120.175 96.8743 119.934 97.877 119.934C99.4629 119.934 100.643 120.38 101.418 121.273C102.193 122.167 102.585 123.507 102.594 125.293V135H100.967V125.279C100.958 123.958 100.675 122.973 100.119 122.326C99.5723 121.679 98.6927 121.355 97.4805 121.355C96.4688 121.355 95.571 121.674 94.7871 122.312C94.0124 122.941 93.4382 123.794 93.0645 124.869V135H91.4375V120.207H92.9961ZM117.217 130.789L120.348 120.207H123.78L118.653 135H115.768L110.6 120.207H114.045L117.217 130.789ZM140.085 135C139.939 134.717 139.811 134.257 139.702 133.619C138.645 134.722 137.35 135.273 135.819 135.273C134.333 135.273 133.121 134.85 132.182 134.002C131.244 133.154 130.774 132.106 130.774 130.857C130.774 129.281 131.358 128.073 132.524 127.234C133.7 126.387 135.377 125.963 137.555 125.963H139.593V124.992C139.593 124.227 139.378 123.616 138.95 123.16C138.522 122.695 137.87 122.463 136.995 122.463C136.238 122.463 135.619 122.654 135.136 123.037C134.652 123.411 134.411 123.889 134.411 124.473H131.089C131.089 123.661 131.358 122.905 131.895 122.203C132.433 121.492 133.162 120.936 134.083 120.535C135.012 120.134 136.047 119.934 137.186 119.934C138.918 119.934 140.299 120.371 141.329 121.246C142.359 122.112 142.887 123.333 142.915 124.91V131.582C142.915 132.913 143.102 133.975 143.475 134.768V135H140.085ZM136.434 132.607C137.091 132.607 137.706 132.448 138.28 132.129C138.863 131.81 139.301 131.382 139.593 130.844V128.055H137.802C136.571 128.055 135.646 128.269 135.026 128.697C134.406 129.126 134.096 129.732 134.096 130.516C134.096 131.154 134.306 131.664 134.725 132.047C135.154 132.421 135.723 132.607 136.434 132.607ZM155.529 135H152.206V114H155.529V135ZM171.273 135.273C169.168 135.273 167.459 134.613 166.146 133.291C164.843 131.96 164.191 130.192 164.191 127.986V127.576C164.191 126.1 164.474 124.783 165.039 123.625C165.613 122.458 166.415 121.551 167.445 120.904C168.475 120.257 169.623 119.934 170.89 119.934C172.905 119.934 174.459 120.576 175.552 121.861C176.655 123.146 177.207 124.965 177.207 127.316V128.656H167.541C167.641 129.878 168.046 130.844 168.757 131.555C169.477 132.266 170.38 132.621 171.464 132.621C172.987 132.621 174.226 132.006 175.183 130.775L176.974 132.484C176.382 133.368 175.589 134.057 174.595 134.549C173.611 135.032 172.504 135.273 171.273 135.273ZM170.877 122.6C169.965 122.6 169.227 122.919 168.662 123.557C168.106 124.195 167.75 125.083 167.595 126.223H173.925V125.977C173.852 124.865 173.556 124.026 173.037 123.461C172.517 122.887 171.797 122.6 170.877 122.6ZM188.48 120.207L188.576 121.916C189.67 120.594 191.105 119.934 192.883 119.934C195.964 119.934 197.531 121.697 197.586 125.225V135H194.264V125.416C194.264 124.477 194.059 123.785 193.648 123.338C193.247 122.882 192.587 122.654 191.666 122.654C190.326 122.654 189.328 123.26 188.672 124.473V135H185.35V120.207H188.48ZM210.746 116.611V120.207H213.358V122.668H210.746V130.926C210.746 131.491 210.856 131.901 211.075 132.156C211.302 132.402 211.704 132.525 212.278 132.525C212.661 132.525 213.048 132.48 213.44 132.389V134.959C212.683 135.169 211.954 135.273 211.252 135.273C208.7 135.273 207.424 133.865 207.424 131.049V122.668H204.991V120.207H207.424V116.611H210.746ZM225.042 135H221.72V120.207H225.042V135ZM221.514 116.365C221.514 115.855 221.674 115.431 221.993 115.094C222.321 114.757 222.786 114.588 223.387 114.588C223.989 114.588 224.454 114.757 224.782 115.094C225.11 115.431 225.274 115.855 225.274 116.365C225.274 116.867 225.11 117.286 224.782 117.623C224.454 117.951 223.989 118.115 223.387 118.115C222.786 118.115 222.321 117.951 221.993 117.623C221.674 117.286 221.514 116.867 221.514 116.365ZM237.396 120.207L237.491 121.752C238.53 120.54 239.952 119.934 241.757 119.934C243.735 119.934 245.088 120.69 245.818 122.203C246.893 120.69 248.406 119.934 250.357 119.934C251.988 119.934 253.2 120.385 253.993 121.287C254.795 122.189 255.206 123.52 255.224 125.279V135H251.902V125.375C251.902 124.436 251.696 123.748 251.286 123.311C250.876 122.873 250.197 122.654 249.249 122.654C248.493 122.654 247.873 122.859 247.39 123.27C246.916 123.671 246.583 124.199 246.392 124.855L246.405 135H243.083V125.266C243.038 123.525 242.149 122.654 240.417 122.654C239.086 122.654 238.143 123.197 237.587 124.281V135H234.265V120.207H237.396Z" fill="black"/>
<path d="M111.947 68.625C112.367 69.1762 112.962 69.4518 113.732 69.4518H113.802C114.455 69.4518 115.108 68.8158 115.761 67.5438C116.414 66.2718 117.02 64.5333 117.58 62.3285C118.14 60.1237 118.664 57.9083 119.154 55.6823C119.644 53.4563 120.134 51.0501 120.624 48.4637C120.694 48.0185 120.752 47.6899 120.798 47.4779C121.148 45.7607 121.417 44.3297 121.603 43.1849C119.831 42.3793 118.501 41.3511 117.615 40.1003C116.542 38.6587 116.006 37.0687 116.006 35.3303C116.006 32.9135 116.88 30.9313 118.629 29.3837C120.379 27.8361 122.466 26.9563 124.892 26.7443H125.241L125.556 25.3451C127.515 17.3739 129.02 11.8195 130.069 8.68188C131.119 5.54427 132.227 3.30767 133.393 1.97207C134.489 0.657669 135.667 0.000473022 136.926 0.000473022C138.232 0.000473022 139.212 0.371468 139.865 1.11347C140.518 1.85547 140.891 2.70348 140.985 3.65747C140.985 4.18748 140.845 4.61147 140.565 4.92947C140.285 5.24747 140.017 5.44888 139.76 5.53368C139.504 5.61848 139.247 5.65028 138.99 5.62907C138.501 5.62907 138.057 5.47008 137.661 5.15208C137.264 4.83408 137.066 4.39948 137.066 3.84827C137.066 2.83067 137.684 2.22647 138.92 2.03568L138.815 1.90847C138.746 1.84487 138.652 1.77067 138.536 1.68587C138.419 1.60107 138.326 1.53747 138.256 1.49507C137.906 1.28307 137.521 1.17707 137.101 1.17707C135.539 1.17707 133.848 5.35348 132.028 13.7063C131.422 16.2079 130.512 20.7977 129.3 27.4757C133.031 29.1717 134.897 31.7899 134.897 35.3303C134.897 37.4927 134.093 39.4113 132.483 41.0861C130.874 42.7609 128.717 43.7043 126.011 43.9163H125.661L125.346 45.3155C123.247 53.7743 121.615 59.6891 120.449 63.0599C119.282 66.4308 117.883 68.6992 116.25 69.8652C115.457 70.3952 114.618 70.6602 113.732 70.6602C112.799 70.6602 111.947 70.3316 111.178 69.6744C110.408 69.0172 109.977 68.1162 109.883 66.9714C109.883 66.2294 110.105 65.7206 110.548 65.4449C110.991 65.1693 111.434 65.0315 111.877 65.0315C112.367 65.0315 112.81 65.1905 113.207 65.5085C113.603 65.8266 113.802 66.2612 113.802 66.8124C113.802 67.83 113.184 68.4342 111.947 68.625ZM124.752 28.0481C124.285 28.0481 123.76 28.1329 123.177 28.3025C122.594 28.4721 121.953 28.7477 121.253 29.1293C120.554 29.5109 119.936 29.9667 119.399 30.4967C118.863 31.0267 118.396 31.7263 118 32.5955C117.603 33.4647 117.417 34.3763 117.44 35.3303C117.44 37.9803 118.653 40.0261 121.078 41.4677L121.848 41.8811L123.037 36.1571L124.927 28.0481H124.752ZM126.116 42.6125C126.723 42.6125 127.411 42.4747 128.18 42.1991C128.95 41.9235 129.754 41.5101 130.594 40.9589C131.434 40.4077 132.122 39.6445 132.658 38.6693C133.195 37.6941 133.475 36.5811 133.498 35.3303C133.498 32.4895 132.017 30.3059 129.055 28.7795C129.055 28.8007 128.985 29.1611 128.845 29.8607C128.705 30.5603 128.53 31.3871 128.32 32.3411C128.11 33.2951 127.959 34.0053 127.865 34.4717C126.629 39.8565 125.999 42.5701 125.976 42.6125H126.116Z" fill="#2F2C2C"/>
</svg>
